<?xml version="1.0"?><svg version="1.2" baseProfile="tiny-ps" viewBox="0 0 300 300" xmlns="http://www.w3.org/2000/svg" xmlns:xlink="http://www.w3.org/1999/xlink"><title>Oleg Morfiianets</title><g><g fill="#ebe9c0" transform="matrix(.1 0 0 -.1 0 300)"><path d="M0 1500V0h3000v3000H0V1500z"/></g><g fill="#cfb489" transform="matrix(.1 0 0 -.1 0 300)"><path d="M0 2520v-480h11c7 0 29 5 50 11l38 12 14-11 14-12 1-37c1-21-4-52-10-70l-11-31 17-27 18-27-6-24-6-24h-25l12-8 13-8-14-19-14-20-27 28c-15 15-32 27-36 27h-9v76l13 13 12 12-19 14c-10 8-23 12-27 9l-9-5v-267l20-5 20-5v-61l-20-6-20-6v-100l10-20c6-10 15-19 20-19h10v49l15 15 16 15 14-5 15-6v-54l-22-23-21-24 11-18 12-18-16-9-16-9 16-6c20-8 20-24 1-60l-15-29 19-5 19-5 5-24 4-24H81c-10 0-23-6-30-13l-12-12-13 18c-7 9-16 17-20 17H0V0h2409l-17 45-17 46 11 17 11 17h178l3-29 4-29-39-33-38-34h495v1835l-30 13-30 14-32 45c-17 25-37 66-45 92l-14 46 7 98 7 98 31 32 32 33-54 23-53 24-52-12-52-11-38 11-39 10-30-10c-17-6-41-11-52-11h-21l-37 25-36 25-7 32c-4 18-9 41-11 50l-5 18-39 10-39 11-25 32c-13 18-31 47-40 65l-17 33 2 37c3 47-7 78-28 86l-16 7-22-21-22-20 3-88c1-48 3-115 4-148l2-61-16-25-16-24 20-37 20-37v-44c0-24-6-61-13-82l-14-39 5-37 4-38h-10c-10 0-26 34-41 92-5 20-20 52-33 70s-32 53-42 78c-21 53-29 68-77 147-20 33-41 75-48 94l-11 34-82 80-82 80-40 18c-23 11-65 27-94 38l-53 18-73 7-73 6v14c0 8 4 14 9 14 4 0 8 8 8 18v18l40-1 40-1 13-18 13-18 13 16 13 16h22c11 0 27-4 34-8l13-9-6-15-6-15 15-6 16-6v-16c0-26 17-16 23 14l6 29 33 5 33 5 18-19c10-11 24-19 32-19h14l20 29c23 32 27 56 11 66-5 3-10 13-10 20v15l45 20c25 11 45 22 45 24s-80 5-179 5l-178 2-27-10-26-11v20l-222-2c-123 0-213-3-200-5l24-5 10-29 10-29 9 6 9 5v-10c0-6 6-11 14-11h15l3-22 3-23 19-3c27-6 46-27 46-51v-21h-66l-22 16-22 15v-10c0-6-7-11-15-11s-15 5-15 10c0 6-7 10-16 10h-16l6 16 6 16-7 11c-8 13-9 19-11 60l-2 29-20 5-20 5v28H0v-480zm1376 464 21-6-3-30c-5-36-9-42-23-34l-10 6 5 25 4 25h-15c-8 0-15 5-15 10 0 11 6 12 36 4zm-584-35 4-12 24-2c39-4 40-4 40-19 0-8 7-22 16-30l15-16h-10c-5 0-12-9-16-20l-6-19-34 1-34 1-17-13c-9-8-20-24-25-37l-9-23h-49l-6 55-7 55 12 14c6 8 10 23 8 33-1 10 1 24 5 31l8 12h77l4-11zm778-25c0-2-9-4-20-4s-20 4-20 9v9l20-5c11-3 20-7 20-9zm-540-74 20-20-22-30-22-30h-35c-20 0-52-4-71-10l-35-10 21 18 21 17-2 31-2 30 21 11c11 6 36 11 54 12l32 1 20-20zm-647-222c23-12 49-24 57-28l15-6 24 12 25 13 19-10c10-6 28-12 40-15 11-2 30-13 41-23l20-20-20-7c-10-3-26-8-34-11l-15-5 13-5 12-5v-38h-41l-6-16-6-15 20-22 20-22-9-32-9-33h-79v20l-22-1-23-1 13-5 12-5 6-39 7-39h8c5 0 9 5 9 10 0 6 4 10 9 10h8l-5-25c-2-14-8-28-13-31l-9-5v10c0 6-7 11-15 11h-15v32l-12-5-13-4-47 34c-26 19-57 36-69 38l-23 5-13-11-13-11v13c0 8 3 24 6 37l6 22h24c12 0 26-4 29-10l6-10h59v24c0 13 3 32 6 41l6 16-31 12-31 11-15 38-15 38v39c0 59 15 64 83 29zm277-48c0-5-7-10-16-10h-15l6 10c3 6 10 10 16 10 5 0 9-4 9-10zm-233-627c-3-2-15 4-26 14l-21 17v37l23 8 22 8 3-39c2-22 1-42-1-45zm2263 31 14-24-12-12c-7-7-12-20-12-30v-17l29-33c15-18 33-43 39-54 7-12 32-35 57-50l45-29 16-34 17-35-10-15-10-16-39-3-39-3-47 38-47 38-1 17v17l-47 45-47 46-4 70-4 70 13 16c16 19 49 33 65 27 6-2 17-15 24-29zM453 1622l11-113-15-10c-8-5-19-9-26-9h-12l-3 133c-2 72-1 143 1 156l4 23 14-33 15-34 11-113zm1807-62c0-13 32-45 52-52l15-6-7-49-8-48 14-15c7-8 22-25 33-37l21-23-11-27c-6-16-12-44-14-62l-3-35 15-11 16-12-14-24c-7-13-12-28-11-32s-4-67-13-140c-8-73-15-152-14-177V615l21-23 22-22-17-35-17-35h-47l-11 25c-7 14-12 41-12 59v34l-12 9c-7 6-30 13-50 17l-38 7v20c0 10 6 45 14 77 8 31 19 111 25 177l10 120 13 27c7 16 16 28 21 28 4 0 7 9 7 20v20l22 22 21 21-45 41-46 41-5 130-5 130 21 23c22 23 37 28 37 12zm463-44 14-14 12 8c15 9 49 2 57-11l5-9-15-16c-9-8-16-23-16-33v-18l-24 4-25 5-36-12-37-12-23 22c-13 12-28 35-34 51l-10 29 17 10c9 5 36 10 59 10h42l14-14zM325 1055c29-13 72-27 96-31l44-7 69-33c39-19 76-34 83-34s13-4 13-9v-8l-102-7c-97-7-207-21-254-32l-20-5-3 85c-2 80 2 106 16 106 3 0 30-11 58-25zm1852-923 11-7-24-30-24-30v12c0 6 5 15 10 18l11 7-6 19-6 19h8c4 0 13-4 20-8zm83-30V86l-15 20c-8 10-15 23-15 28v8l15-12c8-7 15-20 15-28zM1 1283l1-78 9 30c10 34 8 125-3 125H0l1-77z"/></g><g fill="#c77e61" transform="matrix(.1 0 0 -.1 0 300)"><path d="M0 2845v-156l17-25 17-26-17-10-17-9v-25c0-15 7-41 16-60l17-35-17-18-16-18v-351h48c27-1 53-2 58-3s17-1 27 0l17 1v28l46 4 46 3 5-9 6-9-24-18c-13-9-35-20-49-22l-25-5-3 9c-2 5-8 9-12 9h-9l15-27 14-28-6-32-6-33 12-82 11-83-20-45-20-45 15-16c9-10 26-20 39-23l23-6 6-23c3-12 3-32 0-44l-6-21-25-13-24-13 2-41c3-44-9-97-24-106-5-4-11-21-13-38l-4-31h14c8 0 16 6 19 13l4 12 30-27c16-16 34-28 41-28h12v38c0 20 3 55 7 77l6 39 7-19 7-20-1 188-2 187h8c4 0 8 7 8 15v15h27l7-192c9-269 10-364 4-374-3-5-8-25-12-45l-6-37-20-5-19-5-27 14-28 15-35-35c-20-18-46-39-59-46l-24-12-12-30-13-31 13-45c18-58 18-58-6-82l-20-20H0V0h2238l7 39 7 40-12 20-11 21h-33l-35-33-34-32 8 20c4 11 10 34 13 52l4 32 52-6 51-6 19-16 18-16-5-57-5-58h64l-4 63-4 63 33 28 33 28 81-7 80-7 25-11 25-12 14-29 14-30-16-43-16-43h389v1310h-14c-8 0-31-10-51-21l-36-21 5-37c2-20 7-44 11-53l7-18-16-6-17-6-6 6c-4 3-6 31-5 62l1 56-14 21-15 21v-24l-46 35-45 35-41-6c-23-2-47-9-52-13l-11-9-37 13-38 13-17-13-18-13 14-34c7-18 16-47 18-64l5-31-28-22-28-22-31 1c-16 1-36 2-42 1l-13-1v-38l-25-30-25-30v-21c0-12-8-39-18-59l-18-37 2-65c2-36 8-112 14-170 7-58 13-129 14-158l1-54-24-19c-13-10-32-19-43-19h-19l-26 26-25 26 5 44 5 45-15 14-14 15h-57l-6 16c-9 24-7 59 4 70l11 11 16 164c20 196 20 254 5 468l-11 164 10 19 11 20-22 53-22 54 7 10c3 6 10 11 16 11h9v-40h85l36-29 35-29 51-10c28-5 65-7 83-4l32 5 23-13 23-12 48 10 49 10 46-5 46-5 7 11 7 11-87 87c-48 49-96 102-106 118l-18 30v161l17 24c23 35 33 40 74 40h37l11 14c7 8 17 42 23 75l12 61 28-31 29-31-2-89-2-90-26-25-25-25 12-17c6-9 22-33 34-54l22-36 41-13c22-7 48-19 58-27 9-9 20-13 23-10 8 8-44 88-61 95-8 3-15 11-15 19 0 7-8 18-19 23l-19 10-4 31-5 30 15-2 15-3-2 135c-1 74-5 145-7 156l-6 22 11 6c17 11 13 24-9 36l-20 10-37-16-38-16 34-15 33-14-6-7c-4-3-37-7-73-9l-66-2-11-11c-14-14-57-12-77 3-16 12-19 18-19 35 0 5-25 35-55 67-30 33-56 64-56 70-1 5-2 15-4 20-1 6-3 16-3 23l-2 12-37 15-38 15-38 59c-20 32-46 66-57 76l-19 17-6-34c-3-18-6-74-5-123 1-50 0-103-1-120-1-16 4-49 11-73l13-43-19-72-18-72 3-55 2-55-10 10c-5 6-21 32-35 59l-26 49v49l-20 29c-12 15-38 63-58 106s-56 110-79 149c-23 38-44 81-48 95l-6 25-89 87c-48 48-93 87-100 87-6 0-42 13-78 29l-67 29-80 6-80 7-36 15-35 15-48-25-48-26-103 7-103 6-35-22-34-21h-32c-17 0-46-6-64-14l-32-14-48-50-47-50-45-22-45-22-26-30-25-31 4-19 5-18-34-57c-19-31-34-61-34-67 0-5-11-22-25-36-14-15-34-49-45-76l-18-49-19 2c-32 2-96 30-108 46l-11 16-32-1-32-1v-9c0-4-10-8-23-8h-23l-16 28c-9 15-24 48-32 72l-15 45 38 40 38 40 13 41 12 42-22 66c-12 36-19 69-16 74s-1 21-9 36l-15 28 9 17 9 16-21 45-20 45-1 32v32l24 26 23 25H0v-155zm1385-110c-5-2-44-5-85-8l-75-4 20 8c11 4 49 8 85 8 36-1 61-2 55-4zm-28-541 23-6 11-39 12-39-26-21-27-20v-59h-10c-5 0-10-6-10-13v-14l-22-10-23-11 27-7 28-7-10-19-10-18 20-11 19-10-5-14-5-14 35-6 36-7v-39l-12-1-13-1 13-5 13-5-28-36c-15-21-32-40-37-44l-10-7-7 10-6 10-39-25c-21-13-47-32-56-40-10-9-22-16-27-16-4 0-19-9-32-19-23-18-47-25-76-22l-13 1v18c0 9 7 30 15 45l14 28-1 35-1 34h-9c-16 0-8 20 10 21h17l-22 9c-13 5-23 13-23 19 0 5-9 11-20 14l-20 5v-18l-20 12-20 13v35h-13c-7 0-21 10-31 22l-19 21 12 20 12 19-21 18-20 18 9 25c5 14 9 27 8 29s4-4 12-12l14-15-5 15c-3 8-2 25 3 38l8 22h20c11 0 27 7 36 16l16 16 44-4 44-5 11 11c6 6 34 23 63 38l52 26 35 1c19 0 45-2 57-5zm988-35 26-32-9-9c-5-5-22-10-38-11l-29-2-3 28c-4 33 3 57 17 57 5 0 21-14 36-31zM432 2045l11-25-11-90-11-89 14-58c16-72 35-206 35-253v-34l32-28 33-28 17 6 18 5v-8c0-4 3-19 7-33l6-25-24 21c-13 11-54 34-92 50l-67 29 1 175 1 175-10 25c-5 14-13 56-17 93l-7 68 16 24c21 32 33 31 48 0zm648-445c0-5-4-10-10-10-5 0-10 5-10 10 0 6 5 10 10 10 6 0 10-4 10-10zm668-238 17-17v-50l13-10 14-11 5-82 6-82h-11c-6 0-20 13-32 30l-21 30 3 27c1 16-1 49-5 75l-8 46-13 12-14 11 5 19c7 25 18 25 41 2zm972-112c10 0 25-3 34-6l16-6v-15c0-17 24-43 39-43 6 0 11 5 11 10 0 6 4 10 9 10h10l3-27 3-28 21-3 20-3 25-56c13-31 23-61 21-66-2-6 2-13 9-17l12-8-7-11c-10-15-32-14-66 4l-30 16v13c0 8-7 17-16 20l-17 6 5 45 6 45h-14c-8 0-14-4-14-9v-10l-27 15c-16 7-34 14-40 14-7 0-22 9-33 20l-20 20v29c0 16 3 37 7 47l7 18 4-12 4-12h18zm-1565-20c20-39 20-40-18-21l-33 16 15 17c19 23 18 23 36-12zm-501 4 6-17-17-13-18-13-8 8-9 9 14 21c15 25 24 26 32 5zm-343-131c15-17 110-63 132-63 7 0 35-14 63-32 27-17 69-39 94-49 24-9 46-21 47-26l3-9-57 1h-58l3-18 3-18-19 10c-27 14-93 15-190 1-46-6-85-10-87-8-7 7-8 184-1 206l7 22h47l13-17zm259-17c0-18 13-27 54-37l31-7h-25c-30-1-92 28-98 46l-4 12h42v-14zm-31-42c1-1 1-7 0-13l-4-10-25 20-25 20 25-7c14-3 27-8 29-10zm1537-666c-3-17-8-34-11-36-6-6-35 18-35 29s30 39 42 39h11l-7-32zm-826 1462-15-10 60 1h60l-20 9c-27 12-67 12-85 0zm78-37c7-3 16-2 19 1 4 3-2 6-13 5l-19-1 13-5zM268 2988l22-11 7-25 6-24-10-32c-6-18-10-50-9-72l1-39 18-3 18-4 20 18 19 17v56l10 6c6 3 10 17 10 31v24l24 10 23 9 5 25 5 26-96-1h-96l23-11zm272-33 7-46 19-14c25-19 34-19 35 3 0 9 3 36 5 60l5 42h-78l7-45zm690-3v-20l16-6c40-15 45 0 9 27l-25 18v-19zm1734-1156c-3-8-4-23-2-33l3-18h30l3 33 3 32h-32l-5-14zm-547-323-18-5 3-21 3-21 33-19 34-20 26 20c15 11 28 28 30 37l3 16-26 10c-27 10-56 11-88 3zm-12-242-5-10 10-6 10-6v15c0 18-6 21-15 7z"/></g><g fill="#935850" transform="matrix(.1 0 0 -.1 0 300)"><path d="M5 2978c4-13 12-38 18-56l12-34-18-13-17-12v-102l30-44 30-45v-60l-15-12c-19-16-19-44 1-75l16-24-7-31-7-30h61l6 10 6 10h55l22 16c26 18 52 64 52 92v19l-18 16c-10 10-26 17-35 17h-17v76l10 10 10 10-17 89c-9 50-16 107-16 129l-1 38 19 14 19 14H-1l6-22zm144-337c21-21 18-31-11-31h-18v25c0 30 4 31 29 6zm173 334c14-30 15-30 53 0l30 25h-95l12-25zm1018-166-25-11-144-8-143-8-11-11c-6-6-24-11-40-11s-48-5-69-12l-40-12-41-49-42-49-46-24-46-23-27-31c-14-17-26-36-26-42v-10l15 12 15 12v-8c0-5-16-29-35-52-19-24-44-66-56-93-13-27-27-49-31-49-5 0-23-29-39-65l-29-65h-49l-6 11-7 10-39-6-40-7-15 12-14 13-7-7c-9-9-9-48 5-276 7-107 12-257 12-332 0-76 5-193 11-260l11-123-9-50c-5-27-7-57-5-67l3-16 27-10c15-6 42-14 60-17l32-7v7c0 3-7 19-15 35l-15 30 6 37 6 38-16 30-16 30v166l10-6 11-7-2-21c-1-12-1-43-1-69l2-48h26l12 45c12 46 25 57 36 30 3-8 17-20 32-25l26-10-4-13c-3-6-14-13-27-15l-21-3-17-25-16-25 1-29 1-29 18-28c10-15 25-33 33-40 18-15 50-17 50-3v9l42-19 42-19 7-20 8-20-14-11-14-12-41 7-40 7 6-15 5-15 37-7c43-8 72-22 72-35v-9l-32 11c-18 6-35 14-38 17s-12 7-20 8-25 5-38 9l-22 6v-10c0-5 27-21 60-35 33-15 60-30 60-34v-9l-57 1h-58l3-18 3-18-19 10c-27 14-93 15-190 1-46-6-85-10-87-8s-7 65-11 141l-7 137h-11c-6 0-17-9-24-20l-12-20h-17c-9 0-29-11-44-26l-26-25 5-70 5-69-18-20-18-20H0V0h2230l11 28 10 27-8 30-9 30-19 4-19 3-28-33-28-33-6 7-6 6 8 18c7 17 9 26 13 66l1 17h96l26-28c14-15 30-36 36-47l11-20 1 20c0 11 11 37 25 58l26 37h102c56 0 112-3 124-6l23-6 21-34 20-34-6-55-7-55h94l-5 26-4 25 14-5c8-3 19-6 25-6h10l-5-14-6-14 15-6c9-3 55-6 103-6h87l12 12 12 12v1267l-30-18-30-17-1-16c-1-8-1-52-1-97l1-82 11-20c5-11 10-31 10-45v-25l-26-20-26-21-10 6c-5 3-27 28-48 56l-40 50v47l-57 28-56 28-18 32-19 33 10 26c6 14 10 34 10 44v19h-17c-10 0-29 2-43 3l-25 3-2-49-2-49-22-23c-12-13-37-28-55-34-19-7-34-15-34-19 0-3-15-22-33-41s-45-61-60-92l-27-57 6-123c6-149 10-180 25-223l13-34-13-40-12-41-29-15c-16-8-43-15-60-15h-31l15-22c9-12 16-32 16-45v-22l-19-6c-11-3-53-10-94-14-41-5-80-12-86-15l-10-7-26 17-25 16v36l43 33 42 34 68-5 67-5v9c0 15-34 35-60 36h-26l-12-12-12-12v24h-30v13c0 22 14 34 53 46l38 13 14-6 15-5 10 19c14 26 13 37-5 44s-47-3-40-14l5-8-24-4-23-5 3 63c2 35 8 74 13 87s12 74 16 137l8 113-17-6-16-6-12 19-13 20h-36l-65 65c-68 68-77 73-98 53l-12-12 4-22 4-21-15-6-16-6-10 13-11 13-28-5c-15-2-34-10-42-17s-35-16-60-19c-25-4-66-11-92-15l-47-7-14 7-14 8 5 30 4 30 30 10c17 6 34 8 39 5l9-5v32l-15 5-15 6-39-25-39-26-51-3c-49-3-64-11-38-21l12-5-25-1c-36-2-70-12-65-20 2-4-14-15-35-25-22-10-40-22-40-28v-10l-12 9-13 8-64-1-63-2-7-8c-10-14-49-34-68-34-9 0-27-10-40-22l-23-21v23h-30l-10 25-9 24-26 7c-14 3-34 4-45 1l-20-5 6 24 6 24-16-6-16-6v24l-15-12c-8-7-16-10-16-6-1 3-2 9-4 14-1 4-5 25-10 47-4 22-16 50-25 62l-17 22 3 28c1 15-1 32-5 38l-9 10 4 40c1 22 7 74 13 115 5 41 10 108 10 148l1 72 20 20c11 11 20 23 20 27 0 3 7 14 16 24 8 9 22 41 29 70l14 52-11 21-11 21 2 43 2 42h-21l-6-30-6-30h-38v15c0 8 8 23 18 33 9 9 17 24 17 32v15h30l-3 28-3 27 16 6c8 3 15 10 15 15 0 11 11 26 56 75l32 35 58 9c31 5 62 14 68 20l10 10h33c18 0 41 4 51 9 39 20 70 31 124 44l56 15 32-4 31-4 72 19 72 18 50-4c28-2 75 0 106 5l55 8 15-7c8-4 36-13 64-20l50-13 47-48c27-26 48-51 48-55s19-28 42-53l41-45 29-65c16-36 34-89 40-117l11-53 8 6 9 5v133l8-9 7-10-3-83-4-83-16 13-17 13 13-17 14-17-2-33c-1-18-2-47-1-65l1-32 55-6 55-7 24-30 23-30 84-5c109-7 130-7 217-5l72 2v35l-87 89-86 90-7 37-7 38 6 70 7 70 18 20 19 21h77l14 23c8 12 20 48 27 80 7 31 15 57 18 57 15-1 50-49 58-80l9-35-6-48-6-48 12-10 12-10 7 122 7 121-10 10-11 11h-81l-82-1-11-11c-6-6-24-11-39-11h-28l-20 20c-11 11-20 26-20 33 0 8-23 37-52 66l-51 52-6 36c-3 20-9 35-14 34-4-1-20 5-36 13l-28 15-38 60c-37 57-61 79-74 65-3-3-6-54-6-112v-107l-8-12-8-12 17-58 17-57-12-66c-7-36-16-72-20-79l-9-13 10-35 9-34-6-20-7-20-29 47-30 46-8 44-8 44-26 39c-14 21-38 67-52 102-15 35-40 82-55 104-34 50-70 120-70 137 0 16-178 188-195 188-7 0-41 13-76 29l-64 29-90 6c-49 3-101 8-115 11l-25 4-25-10zm25-80c-45-9-201-12-193-4s180 21 208 16l25-5-40-7zm144 5c2-2-19-4-48-4h-52l5 9 6 9 43-5c23-3 44-7 46-9zm104-23 9-9-41 11c-23 6-41 14-41 18v8l32-10c17-5 36-13 41-18zm-478 9c-3-5-17-10-31-10h-24v20h61l-6-10zm135-80v-10h-22c-13 0-30 5-38 10l-15 10h75v-10zm-180-34c-14-7-35-17-47-20l-23-7v19l38 10c52 14 61 13 32-2zm-103-52c-3-3-12-4-19-1l-13 5 19 1c11 1 17-2 13-5zm1355-374c27-21 40-51 29-67-3-6-18-13-33-16-14-4-34-10-43-13l-17-7 7 54c11 78 15 82 57 49zM430 2065l13-15-7-108-7-109 15-75c9-42 19-116 23-164l6-89 29-29 29-28 20 5 20 5 24-24c14-14 25-28 25-32s18-29 40-56c22-26 40-53 41-60 0-6 8-48 18-94l18-83-5-25-5-26 14-9 14-9h-25v-48l11-4 11-4-4-29-3-30-23 35-22 35v27c0 15-4 29-8 32-5 3-9 19-10 36l-1 32-16 25-17 25-17-16c-10-9-21-16-25-16h-8l7 43c4 23 11 46 16 52 10 10 12 65 3 89l-6 16h-48l-19 19c-10 10-20 23-22 29-5 14-66 59-101 74l-28 12-2 126c-2 190-4 212-16 255l-12 40v154l16 15c19 20 28 20 44 1zM1590 960l15-10-14-9-13-8 10-7 11-7-6-15-6-15-12 5-13 4-10-10-10-10-22 15-21 15 16 5 15 6v40l18 4c9 3 19 5 22 6 3 0 12-4 20-9zm1320-122v-63l-15 29-15 28v68h30v-62zm-1222-23c-2-1-16-5-32-9l-29-7 12 14 12 15 20-5c11-3 18-7 17-8zm264-189 4-35-8 5c-8 5-12 64-4 64 2 0 6-15 8-34zm-411 14h9v-40h-24c-14 0-28-4-31-10-3-5-10-10-16-10h-9l3 18c1 10 9 26 17 35l15 16 13-4c8-3 18-5 23-5zM100 2330c-29-22-27-25 18-33l32-6v18c0 10-6 23-13 29l-12 11-25-19zm2646-39-6-9 27-5c15-3 33-3 41 0l14 6-14 8c-17 11-55 11-62 0zM18 2216c4-14 17-36 29-50l23-26h25c30 0 32 11 4 28l-21 13 6 25 6 24-30-5-30-5v10c0 5-4 10-9 10h-9l6-24zm163-192-24-17 8-76c5-42 9-96 9-121l1-45 13-23 13-23 10 6 9 6v44c0 25 5 64 11 87l12 43-9 64-9 64-10 4c-6 2-21-4-34-13zm2796-238-6-15 15-11 14-12v52h-9c-5 0-11-6-14-14zm-1590-98c-27-5-59-15-70-23-12-7-41-18-65-25l-42-11-53-40c-28-22-65-57-82-79-16-21-37-40-46-43l-16-4v-53l44-30 44-30h110l-5-8c-2-4 2-22 11-39l15-32 29-6c15-4 46-15 68-26l40-19h80l6 10c3 6 15 10 25 10h19l11 20 11 20h19c10 0 22 5 25 11l7 10 15-5c8-3 19-3 24 0l10 6-12 14-11 14h11c19 0 36 21 57 73l19 49 25 17c36 25 52 29 78 20l22-8v-31c0-17 6-43 14-58 7-15 16-47 20-73l7-45 35-1 35-1 14-12 15-13 66 6c36 2 67 6 68 8 2 2 7 19 11 37l7 33-19-3-18-3-3 22-3 21 23 8c13 4 41 8 63 8l40 1 1 70c0 39 4 80 8 92l7 22-14 33-15 34-48 21-49 21-57 1-58 2v-26l-8 10-7 10-75-2c-41-1-88-2-105-3-35 0-105 6-155 14l-35 6 20-10 20-10-30 4c-16 3-50 8-75 11-25 4-52 8-60 9-8 2-37-1-63-6zm1073-242v-16h32l-4 12c-2 6-10 14-16 16l-12 4v-16zm272-143 3-28 17 1 17 2 6-19 6-19h28l6 20c3 11 4 24 0 29-6 11-63 41-77 41h-9l3-27zM495 1080c10-11 20-18 23-15 7 6-18 35-31 35h-10l18-20zm1693-60-5-30h8c4 0 9 14 11 30l5 30h-8c-4 0-9-13-11-30zm119-966c-4-4-7-18-7-31V0h41l-6 23c-4 12-10 25-14 30l-7 7-7-6z"/></g><g fill="#59373a" transform="matrix(.1 0 0 -.1 0 300)"><path d="M30 2995c0-4 7-19 14-34l15-28-5-20-6-21 12-22 12-22-22-30-21-29 6-17c3-9 16-29 30-44l24-28h48l16 18 17 19v63l-25 16-25 16v18c0 10 5 20 11 22l10 3-10 45-10 45 16 17 16 18H92c-34 0-62-2-62-5zm1357-208-12-7-83 6-83 6-74-13-73-13 5-12 5-13 236 2 237 2 53-18c28-10 52-22 52-27 0-4 9-10 20-13s20-10 20-16v-11l-27 11c-16 5-46 19-68 29l-40 19-70 6-70 7-35-14-35-14-115 3c-63 1-134 0-157-3l-43-5v-15c0-8-9-23-20-34l-20-20h-56l-12-12c-6-6-35-15-64-19s-64-11-78-15l-25-7 14 16c7 9 20 17 29 17 8 0 23 6 31 13 9 7 36 22 61 32s49 22 54 27l10 8h-21c-11 0-34-5-52-11s-35-9-38-5c-8 7 32 22 85 31l42 7-6-19-6-18 16 19 15 19 30 1 29 1-5 8c-2 4-12 7-21 7h-17l25 21 25 21-30-8c-16-4-41-8-55-9s-31-3-38-3l-13-2 5-9 6-8 25 5 25 4v-25l-52 5-51 5-24-25c-12-13-20-28-18-32l5-8-74-41c-40-23-79-48-86-56l-12-15h16c9 0 16 5 16 10v10h50v-20h-49l-12-22c-7-13-29-43-51-67l-38-44v-33l-35-42c-20-22-47-66-60-96l-25-56h-21c-11 0-29 5-39 10l-19 10-41-21-40-21v-32c-1-17-1-137 0-266 1-213 5-296 26-627l7-103 12-10 13-11 23 32 22 31-12 47-11 46-5 255-6 255-9 45c-5 25-11 86-15 135l-5 90 7 11c5 6 18 16 29 22l22 12 12-16 13-15-6-118-6-118 13-59c15-63 22-113 31-209l6-60 24-24 23-24 15 15 16 15 38-6 38-6 3-20c4-22 29-45 50-45h13l-7 11-6 11 13 25 13 25-17 13-18 13 10 7c6 3 11 17 11 30s5 27 10 30l10 6-5 10-6 9 13 1c7 1 16 1 21 0 4 0 7 12 7 29v29l-15-5-15-6 6 16c3 9 9 16 13 16 6 0 19 28 38 86l10 30-8 22c-5 12-12 22-17 22-10 0-10 41 1 58l8 12-6 10-6 10 18 50 18 50h25v40l13 1c6 1 15 1 18 1s21 19 40 43 55 57 81 74l47 31 38 6c21 3 61 12 88 20 122 36 165 47 225 60 8 2 56 10 105 19l90 15h225c44-1 95-16 139-43l34-20 81-103c46-57 89-116 96-131 8-16 22-39 32-52s15-27 13-31c-3-5-1-11 5-15l10-6v22c0 12-13 45-29 73l-29 51-8 40c-7 42-28 91-41 97-5 1-21 34-36 72s-41 87-56 110c-16 23-41 68-56 101l-28 60-83 83c-45 45-86 82-89 82-4 0-39 14-78 31l-71 32-99 1-99 1-11-8zm393-159v-9l-17 3-16 3-4 24-3 24 20-18c11-10 20-22 20-27zm-450 14c3-2-1-7-9-10l-14-5 24-14 24-14-33 6-32 7-93-12c-50-6-107-14-124-16l-33-5v-19l38-1 37-2-85-8c-85-8-120-5-120 10 0 8 76 37 205 78l60 19 75-4c41-3 77-7 80-10zm461-74c16-18 29-36 29-41 0-11-54 33-69 56l-11 17h10c6 0 24-15 41-32zm80-30 9-18-12 5c-7 3-24 22-37 43l-24 37 28-25c15-14 31-33 36-42zm-718 15c-7-2-19-2-25 0l-13 5h50l-12-5zm-488-252c-11-10-31-22-44-26l-24-7 7 11c4 6 12 11 17 11 6 0 17 7 25 15 9 8 21 15 27 15h11l-19-19zm1390-51 6-10-15 6c-18 7-21 14-7 14 6 0 13-4 16-10zm-1300-50c-3-5-11-10-16-10h-10l6 10c3 6 11 10 16 10h10l-6-10zm-305-42v-22l-11 11-11 11 6 11c11 17 16 13 16-11zm538 515c7-3 16-2 19 1 4 3-2 6-13 5l-19-1 13-5zm-855-93c-13-5-23-14-23-20v-10H70v-9c0-5 7-17 16-25l15-16h27c44 0 66 10 85 36l19 25-12 14-12 15-27-1c-14 0-36-4-48-9zm2103 2c-7-11 1-258 8-271 4-5 19-12 35-16l28-6 26-27c14-15 31-38 36-52 6-14 16-32 22-41l12-16-7-37-7-37-32-20c-18-11-44-22-59-25l-27-6-19-22-19-21-6-156-5-157 56-7 56-7 29-31 30-32 72-2c39-1 76-3 81-4 18-5 164 13 164 20 0 4-17 25-37 48-21 22-45 50-54 60-9 11-26 27-38 35l-22 16-9 63-9 64 8 64 8 64 27 24 27 23h68l7 46 7 46-17 16-16 16-31-11-31-12-33 16-34 16-27 54c-15 29-47 76-71 104-23 28-43 56-43 63s-14 25-30 41c-17 16-45 51-61 77l-31 48h-13c-8 0-16-4-19-8zm5-394c0-7 4-22 8-32l8-20 6 24c3 13 4 27 1 32-8 12-24 10-23-4zM182 2008l-12-12v-35l1-36 18-40 18-40 2 82 1 82-8 5c-5 3-14 0-20-6zm1247-352c-5-5-53-12-111-15l-18-1v-31l-22 2c-13 1-33 1-44 1l-21-2-27-27c-15-15-36-46-47-70s-24-43-30-43c-5 0-14-10-18-22l-9-23 29-27 29-27 49 6 49 6 41-19c46-20 47-21 26-51l-15-22 19-11 20-10h132l32 13c39 17 62 43 62 71v21l22 3 21 3 51 70 51 69v50h-15c-8 0-15 5-15 10v11l-12-3c-7-1-33 11-58 28s-52 32-60 32c-8 1-35 4-60 8-25 3-48 3-51 0zm531-24c-25-8-62-22-82-31l-38-16-10-29-10-29 14-16 15-16-16-33-16-34 27-54 28-54 19-10c25-14 78-15 109-2l25 11h-17c-20 1-24 17-7 23l12 4v35c1 19-2 42-6 52l-6 17h17c10 0 28-9 40-20l21-20h44l13 18c19 25 17 37-13 81l-28 40-13 1h-14l4 12 5 13 39 11 39 11-40 19c-22 11-41 22-43 27-6 11-63 6-112-11zm138-178c-6-6-58 20-58 29 0 4 14 0 31-8 17-9 29-18 27-21zM516 1275l-26-24v-19c0-11 9-30 19-43l20-24 6 17 7 17 33 7 34 6 6 30c4 16 4 32 1 35-3 4-6 0-6-8v-13l-16 22-15 22h-36l-27-25zm2464-40-13-16 6-125 7-126-10-19-11-19-4-188c-3-103-9-201-13-217l-8-30 6-35c3-19 4-46 2-60l-4-25-44-20-44-19v-33l-41-7-42-7-33 23c-19 13-36 30-39 39l-6 16 10 27 10 26 38 6 39 6 32 38 32 39-9 5-9 6-6 83c-4 45-8 127-11 181l-4 99 10 42 11 42-21 39c-12 21-21 44-21 50 0 5-29 29-65 52l-66 42-20 46c-21 51-23 51-47 2l-17-33-35-22c-40-26-90-74-90-87 0-5-15-25-34-46l-33-37 3-164 4-164 11-42 11-42-6-33-6-34-30-32c-17-18-30-35-30-37 0-5 113-39 123-37 4 1 7-4 7-12v-14l-47-11c-57-12-114-20-203-26-36-2-79-8-96-14l-32-9-36 30c-20 16-36 34-36 40 0 5 13 22 29 37l29 27 11 41c6 22 20 52 31 66l20 25-6 16c-7 18-24 22-24 6 0-5-9-19-20-30l-20-20v-59l-17 6c-10 4-21 11-24 16l-7 10-11-8-12-7 11-13 10-12-15-13-15-12-19 5-20 5-3-27-3-26-22-3c-13-2-23-7-23-12v-9l-32 17c-18 9-36 21-39 26l-7 9-51-13-51-12v-23l-10 15-9 15-23-14-22-14-4 12-4 12-13-18-13-17-25 13-25 13-11-6-11-7v10c0 5-8 12-19 16l-18 5 2 45 2 45h-14c-7 0-32 12-56 27-23 15-43 28-45 29-5 3 18 56 31 68 6 7 24 20 38 29l26 17h49c123 1 261 8 278 15 28 12 58 10 184-11l42-7v94l-11 22c-6 12-21 32-32 45l-21 22-7-11-7-12-17 6-16 7 6 10 6 10h-34l23-25 23-25 3-23c1-13-2-30-6-37l-9-14-18 15c-10 9-32 21-49 27l-31 10-39-7-39-7-40 7-40 7-55-15c-30-8-59-19-65-24-5-5-17-9-26-9h-18l1 33c0 17 5 38 11 45l9 12h-29c-16 0-34 5-40 11l-11 11-23-4-24-3 3-17 3-18h-30l-6-19c-3-10-14-26-25-36l-20-18v-95l-20 5-20 5-7 26-6 25 14 11c8 6 14 17 15 24 1 6 2 19 3 27l1 14 17-6 16-6-5 21-6 22h12c7 0 26 16 42 36 16 19 46 52 66 73l37 38 7 27c3 14 3 33 0 41l-6 16-28-28c-16-15-48-45-71-66l-42-38 6-9 6-10h-20c-12 0-21-4-21-8 0-5-13-24-30-42s-30-37-30-41c0-8-34-19-73-24-15-1-29-4-30-6s-10-19-19-36l-17-33 10-5c5-4 9-10 9-14v-8l-37 2c-21 2-32 1-25-2 6-3 12-9 12-15v-9l-20 6-20 6v-8c0-5 5-14 12-21l12-12-27 2-27 2v16c0 9 5 21 12 28l12 12h-12c-7 0-12-4-12-8 0-5-11-14-23-19l-24-11-14 9-14 9-17-6-18-5v21h-50v-9c0-5-6-11-13-14l-12-4-2 25-1 26-11 4c-6 2-11 12-11 23 0 22-8 24-33 4l-19-14 7-43c7-45 30-126 46-167 11-28 8-34-14-25l-16 6-26 51-25 51v61l-16 30c-9 17-22 57-30 90l-13 60 9 9 9 9 16-13c23-19 25-10 7 44l-17 49-39 14-39 13 16-18 17-19v-54l-9 6-10 5-27-25c-32-30-39-31-56-7-7 9-25 25-40 35l-28 17-24-6-24-6-6 11c-4 6-11 11-17 11h-9v-41l-22 7c-13 4-31 7-40 6-10 0-18 3-18 7v8l-47-8c-26-5-50-14-54-20l-7-11-51 7-52 7 3 10 4 10 39 4 38 3 9 13c11 18 9 51-5 128l-12 65-25-3c-14-2-35-10-48-18l-22-15 6-81 7-81-18-13-19-14H0V0h2228l6 16c3 9 6 28 6 44s-3 35-6 44l-6 16h-15c-8 0-27-14-43-32-16-17-32-29-35-27-3 3 0 30 7 60 6 30 11 68 10 85v30l18 12 19 12 15-6 15-6-5-13-5-13 20-7c11-3 31-19 45-36 14-16 28-29 33-29 4 0 20 14 34 32l26 31 124 2 124 3 16-9 15-8 19-61c10-33 21-59 24-57 3 1 18 9 33 16l27 14 31-13 30-13 6-22 6-23 43-22 43-22 21 21 21 21h50v605c0 333-2 605-4 605s-9-7-16-15zm-268-293 11-11-9-33-10-33-45-3-45-3-25 9-25 10-1 22-2 23 22 19 22 19 48-4 48-4 11-11zM310 851c0-5-9-11-21-14l-20-5 12 14c13 16 29 19 29 5zm2423-127c0-27-3-76-7-109-5-33-8-76-8-95 1-19-2-42-6-50l-6-15-7 75c-4 41-10 103-14 137l-7 63 12 36 12 36 15-14 14-15 2-49zm34-26-5-13-1 19c-1 11 2 17 5 13 3-3 4-12 1-19zm8-218 6-10h-10c-6 0-11 5-11 10 0 6 2 10 4 10 3 0 8-4 11-10zm-1040 549c-55-10-110-21-122-24l-23-5v-31l30-17 30-17-5-13-5-13 10 6 10 6 2-18c0-10 0-28-1-40l-2-22 85 2 84 3 14 11 14 12 21-5 22-6-6 22-6 21-12-4-11-5-13 20-12 19 6 18 5 17 33 9 32 10 3 22 3 23-15-6-16-6v32l-27-1c-16-1-73-9-128-20zm215-17v-19l18-16c10-10 24-17 30-17h12v37l-18 16c-10 10-24 17-30 17h-12v-18zM553 913c9-2 23-2 30 0l12 5h-60l18-5zm237-153c0-5 4-10 9-10 6 0 13 5 16 10l6 10h-15c-9 0-16-4-16-10zm270-40c0-5 5-10 10-10 6 0 10 5 10 10 0 6-4 10-10 10-5 0-10-4-10-10zm749-74c-2-2-35-6-74-9-38-3-78-8-88-12l-18-7 4-12c2-6 0-19-5-28l-8-18 41-40 41-40 8 5c5 3 19 1 32-4l24-9 31 17c18 9 43 31 56 48l24 32-5 30-4 29-17 6c-9 3-21 8-27 11-5 3-12 4-15 1zm868-613c-4-3-7-12-7-20V0h30v20c0 20-11 26-23 13z"/></g><g fill="#17142c" transform="matrix(.1 0 0 -.1 0 300)"><path d="m1150 2766-55-9 35-8c19-4 37-6 40-4 4 2 59 6 124 9l118 6 87-10c47-5 97-13 111-16l25-7-13 15-13 16-37 8c-20 4-111 8-202 9h-165l-55-9zm525-23c29-26 85-63 94-63 15 0 14 15-1 27-17 13-106 47-93 36zm-235-34v-10l10 6c6 3 10 8 10 11 0 2-4 4-10 4-5 0-10-5-10-11zm38-1c7-9 27-20 43-23 16-4 43-13 59-21 16-9 46-17 67-20l38-4-60 29c-33 16-73 31-90 34-16 3-39 9-50 13l-20 8 13-16zm-368-16c-14-2-29-8-34-12l-9-9 49 2c27 1 94-4 149-10l99-12 18-23c10-13 18-29 18-35v-13h-12c-7 0-33 5-57 11l-43 10-20-7-21-6 12-8 12-7-78 3-78 4 30-10c17-6 48-15 70-19l40-9-120-1-120-1-56-14-56-13-29-20c-25-18-98-53-111-53-11 0 11 20 37 34 17 9 44 23 60 32 31 16 37 28 20 39l-10 6-22-15c-12-9-26-16-30-16h-7l5 14c3 8 15 16 27 19s60 20 107 37 93 34 103 37c9 3 17 10 17 15v10l-17-7c-10-4-36-12-58-18-22-5-57-16-78-23-20-8-48-14-61-14-14 0-31-3-40-6l-16-6 6-9 5-9-30-6-31-6v-12c0-6-16-20-36-31s-52-37-70-59l-35-40 5-13 5-12-43-48c-24-26-51-63-60-80l-17-33h10c5 0 32 24 61 53 28 28 54 52 58 52s18 8 32 17l25 17 28-6 27-5-45-40c-25-22-43-43-41-46 3-3 1-11-5-19l-12-13-12 16-12 17-80-81-80-81-7-77c-3-42-6-102-6-131v-55l14-31c7-18 19-45 27-62l13-30-3-32-3-33h30l-14-52-13-53 9-9 9-9 16 13 15 12v40l15-6 15-5v31l15-6 15-5v49h31l-6 9-5 10 17 10 18 9-7 8-8 7 21 34 21 33 4 40c3 22 11 52 19 67s15 42 15 58c0 33 34 115 47 115 5 0 14 14 20 30l11 30 16-6 15-6 24 26c13 14 28 26 33 26s20 16 33 35l24 35h13c8 0 14 4 14 9s10 13 23 17c12 4 25 12 30 18l7 11 10-15 10-15v22l58 11c74 13 90 17 148 37 57 20 142 36 199 39 22 1 45 5 51 8 5 4 35 7 65 7s77 1 104 2c65 3 80 2 141-3l50-4 40-30c21-16 43-35 47-41 12-19 25-16 29 8l3 21 28-22c35-28 48-18 18 13l-22 24 7 19 6 19-11-15-10-14-6 16c-4 10-4 21-1 26l6 9-21 19-21 19-9-18-10-17-21 20c-12 10-25 17-29 14l-8-5 6-14c3-8 2-15-1-15-8 0-66 50-85 75-19 24-122 126-142 140-8 6-34 17-59 25-25 7-49 16-54 18-5 3-21 6-35 7s-58 10-97 18l-71 17-31-9-32-10-5 9-6 9-67-2c-37-1-78-4-92-5zm166-181c-4-5-24-12-46-16l-39-7-23 8-23 8 30 7c17 4 47 7 68 8l38 1-5-9zm-26-46c0-3-10-10-22-14l-23-9 73 5 72 6v-20l-55-7c-31-3-81-15-113-25-69-22-181-44-241-46l-44-2 17 12 17 13h40l41 1 22 15c13 8 34 16 47 19 13 2 2 3-26 1l-50-4 30 18 30 17 85 11c47 6 88 12 93 13 4 0 7-1 7-4zm415-15 18-20h-14c-16 0-39 19-39 32 0 14 16 9 35-12zm-855-30v-10l-29-6-30-6-6-16-6-16-9 14c-14 22-12 26 11 27 12 1 27 7 32 12 14 14 37 14 37 1zm0-174v-14l-61-51-61-51h-39l3 28 3 27 18-1c9-1 17 2 17 6 0 8 99 69 113 70 4 0 7-6 7-14zm-250-626c0-5-4-10-10-10-5 0-10 5-10 10 0 6 5 10 10 10 6 0 10-4 10-10zm1689 948c-4-38 4-135 12-150l10-18h-21v-22c0-33 13-48 61-72l42-22 26-48 26-48 28-14c29-16 29-16 32-57l2-28-34-29-34-30-9 5-9 5-53-32c-29-18-59-39-65-48l-13-15 3-130 2-130 53-6 52-7 15-12c8-6 17-21 21-32l6-21 115 5 114 5 11 11 11 11-17 26c-9 14-27 30-39 34-28 11-67 45-67 59 0 6-5 12-11 14l-10 3 10 28 11 28 1 67c0 37 6 87 12 112l12 44 35 17c19 10 43 20 53 23l18 6-3 22-3 23-50 3c-27 1-60 4-72 7l-22 5-12 43-12 42-46 65c-25 35-55 78-66 96-48 76-116 174-120 174-3 0-6-6-6-12zm-233-330c24-39 66-98 73-102 4-3 12 4 18 14l12 18-49 41c-49 42-67 51-54 29zm-1658-78-29-30 3-17 4-18 34 3c19 2 40 9 46 15l12 12-5 33-5 32h-15c-8 0-28-13-45-30zm-25-427 5-308 12-95c18-148 19-150 47-132l13 8-10 34-9 35-5 266-5 265-11 28-10 27v74c0 78-6 105-22 105h-10l5-307zm1102-114c-4-5-21-9-38-10-18 0-41-4-52-9l-20-9h29l28-1-12-15-12-15h8c13 0-96-60-121-66-11-3-32-16-47-29l-28-24v-20c0-27 9-30 58-21l42 7v-8c0-11 66-39 90-39 21 0 47 28 52 57l3 23 25-13 25-13 3-23 4-23 23 6c13 3 38 19 55 34l31 29-6 29c-4 16-7 36-7 44-1 8-8 20-17 27l-16 12 13 1c6 0 12 6 12 13 0 15-41 53-54 49-5-2-22 1-37 7l-29 10-5-10zm559-24-19-16 24 3 24 3 5 13 4 12h-9c-5 0-18-7-29-15zm-88-94c-16-9-38-29-49-43l-20-26 7-25 6-25 22-6c13-3 45-6 71-6h48l8 23 9 22-9 10c-15 15-10 25 14 34l22 8-32 7c-30 7-47 26-22 26h10l-6 10c-9 15-46 11-79-9zm669-345c-22-23-48-48-57-56s-38-38-63-67l-47-52 5-208c3-114 7-221 10-237l6-30-21-28c-11-16-17-32-14-35 10-10 97-22 168-22l67-1 14 20 14 21-7 42c-5 23-11 83-14 132l-6 90 9 48 9 48-21 14c-12 8-31 15-42 15s-28 7-38 14l-18 14 3 33 3 33 25 13c14 7 37 14 51 17s43 19 64 36c44 35 55 37 62 10l5-20h38v50l-37 18c-21 9-55 34-75 54l-38 36v16c0 28-15 23-55-18zm-2428-93c-4-3-7-30-7-60v-54l15-5 15-6 16 13 15 12-7 41c-8 54-28 79-47 59zm1518-61c-11-2-24-8-29-13l-10-9h36c19 0 50-3 67-6l32-7-5-13-5-13 19-6 18-6 37 35 38 34-22 7-22 7-15-13-14-12 6-20 6-19-13 4-14 5 3 17 3 16-13 4c-25 8-83 13-103 8zm115-97c0-8 4-15 8-15 5 0 9 7 9 15s-4 15-9 15c-4 0-8-7-8-15zM280 880l-15-10h17c9 0 20 5 23 10l6 10h-8c-4 0-15-5-23-10zm60-10-15-9 18-13 18-14-19-18-20-17-41 12-42 12 5 14 5 13h-10c-6 0-18-4-27-9-9-4-34-11-55-15l-39-7 6 19 7 20-16 6c-9 3-27 4-41 1-13-3-35-7-49-10l-25-5V0h2228l6 23c3 12 6 34 6 48v27l-15 12-14 12-37-36c-50-48-71-46-43 5l10 20-11 14-11 13 11 7 10 6v33c0 18-5 47-11 65l-11 32-44 30c-24 16-49 39-55 50l-10 20-19-22-20-22-55-12-55-13-14 14c-8 8-19 14-25 14-5 0-14 8-20 18l-10 17-18-13c-10-6-28-16-40-22l-22-9-73 4c-40 2-101 7-135 11l-63 6-23 22-23 21-27 1-27 2-1-12c0-6-5 0-10 13l-9 23-15-6-15-5v24l-10-15-10-15-18 21c-10 11-29 24-43 27l-26 7-7 31-6 30-10-6-11-7-25 17-25 16-22-7c-12-4-23-7-24-6-2 0-16-3-32-8l-29-8-26 13c-15 8-30 15-34 16-21 5-52 23-52 31 0 4-6 8-14 8s-17 6-20 13c-8 19 6-76 15-100l9-23h-49l-34 30-34 30-26 92c-14 51-31 121-37 156-7 34-17 65-22 68l-8 5-15-15c-8-8-15-19-15-24 0-6-6-12-14-15l-15-6-4 12-4 12-21-12-21-13-16 6-15 6v57l-17 3c-10 2-30-2-44-9l-26-13-11-25c-6-14-16-25-22-25h-10l14 35 15 35-7 3c-4 3-18 7-32 10l-25 6-15-9zM90 816c0-3-4-8-10-11l-10-6v10c0 6 5 11 10 11 6 0 10-2 10-4zm1077-341 5-16-6-7-7-6-9 14c-13 20-12 30 0 30 6 0 13-7 17-15zm253 298c-23-9-30-24-30-65v-38h9c6 0 12 4 15 9l5 8 69 2c38 1 85 6 103 11l34 10h164l26 10 26 10-5 9c-6 10-50 20-115 26l-43 5-85-21-84-21-14 12c-8 7-15 19-15 26v14l-22-1c-13 0-30-3-38-6zm446-31c-8-7 61-32 90-32 19 0 44 17 44 30 0 8-126 10-134 2zm-135-141-13-8 11-7 10-7-6-29-5-30h18c11 0 27 7 37 14l18 14-12 8-12 7 27 14 27 14-6 9-6 10h-37c-20 0-43-4-51-9zm838-265c-2-2-40-7-84-10-141-12-289-27-293-31-2-2 13-7 34-12l39-8h404l11 11 11 11-27 22-27 21h-32c-17 0-34-2-36-4zm395-8c-5-7-8-50-9-95v-83h25v43c0 23 3 66 6 95l7 52h-11c-6 0-14-6-18-12zm-272-156-13-9 7-17 7-17 16 6c9 4 29 9 45 12l29 6-18 14c-21 15-53 17-73 5zm108-31c0-5 14-23 32-40l32-31h55l6 10c4 6 10 8 15 5 12-7 20 8 12 21-10 15-93 44-125 44h-27v-9z"/></g></g></svg>